<?xml version="1.0" encoding="UTF-8" standalone="no"?>
<!-- Created with Inkscape (http://www.inkscape.org/) -->

<svg
   xmlns:dc="http://purl.org/dc/elements/1.1/"
   xmlns:cc="http://creativecommons.org/ns#"
   xmlns:rdf="http://www.w3.org/1999/02/22-rdf-syntax-ns#"
   xmlns:svg="http://www.w3.org/2000/svg"
   xmlns="http://www.w3.org/2000/svg"
   xmlns:sodipodi="http://sodipodi.sourceforge.net/DTD/sodipodi-0.dtd"
   xmlns:inkscape="http://www.inkscape.org/namespaces/inkscape"
   width="400.07715"
   height="159.66249"
   id="svg2"
   version="1.1"
   inkscape:version="0.48.4 r9939"
   inkscape:export-filename="/home/corbin/Desktop/LD29/LD29_game/res/char_diver2.png"
   inkscape:export-xdpi="28.748142"
   inkscape:export-ydpi="28.748142"
   sodipodi:docname="New document 1">
  <defs
     id="defs4" />
  <sodipodi:namedview
     id="base"
     pagecolor="#ffffff"
     bordercolor="#666666"
     borderopacity="1.0"
     inkscape:pageopacity="0.0"
     inkscape:pageshadow="2"
     inkscape:zoom="0.98994949"
     inkscape:cx="-60.135033"
     inkscape:cy="-41.141746"
     inkscape:document-units="px"
     inkscape:current-layer="layer1"
     showgrid="false"
     fit-margin-top="0"
     fit-margin-left="0"
     fit-margin-right="0"
     fit-margin-bottom="0"
     inkscape:window-width="1920"
     inkscape:window-height="1024"
     inkscape:window-x="0"
     inkscape:window-y="0"
     inkscape:window-maximized="1" />
  <metadata
     id="metadata7">
    <rdf:RDF>
      <cc:Work
         rdf:about="">
        <dc:format>image/svg+xml</dc:format>
        <dc:type
           rdf:resource="http://purl.org/dc/dcmitype/StillImage" />
        <dc:title></dc:title>
      </cc:Work>
    </rdf:RDF>
  </metadata>
  <g
     inkscape:label="Layer 1"
     inkscape:groupmode="layer"
     id="layer1"
     transform="translate(-176.02265,-421.03748)">
    <path
       style="fill:#000000;fill-opacity:0.67058824;stroke:none"
       d="M 220.21151,460.53962 C 206.80256,454.80264 191.3746,448.17314 185.92713,445.8074 l -9.90448,-4.30133 25.29227,-10.2343 25.29226,-10.23429 14.50326,12.65902 c 7.97678,6.96246 14.66169,13.05059 14.85535,13.52919 0.43736,1.08085 -9.85718,23.13088 -11.01856,23.60082 -0.1957,0.0792 -11.32678,-4.54991 -24.73572,-10.28689 z"
       id="path2998"
       inkscape:connector-curvature="0" />
    <path
       style="fill:#000000;fill-opacity:0.67058824;stroke:none"
       d="m 562.86077,580.6998 c -0.88311,0.0393 -17.29959,-6.53976 -36.48109,-14.62019 l -34.87542,-14.69168 -34.87627,3.89534 c -65.94065,7.36493 -81.83732,8.63011 -88.91116,7.07624 -2.12974,-0.46783 -6.27655,-2.64847 -9.21512,-4.84588 -20.22825,-15.12623 -70.14492,-54.43924 -87.04721,-68.55604 -10.08764,-8.42519 -12.13977,-11.61149 -12.05953,-18.72468 0.0586,-5.20022 1.16853,-8.12479 4.57356,-12.05138 6.05057,-6.97737 16.95351,-8.16917 25.06565,-2.73993 27.37457,21.06069 47.92636,37.60783 76.44336,60.27424 l 38.94672,-4.06892 c 47.05534,-4.91605 49.58159,-5.00751 58.60335,-2.12184 8.99587,2.87739 101.82688,43.23021 106.90824,46.47207 6.87995,4.38933 8.22543,13.58783 2.8962,19.80001 -2.0916,2.43812 -6.81857,4.76227 -9.97128,4.90264 z"
       id="path3000"
       inkscape:connector-curvature="0"
       sodipodi:nodetypes="cscsssscsccssssc" />
    <path
       style="fill:#000000;fill-opacity:0.67058824;stroke:none"
       d="m 420.29276,496.32601 c -33.08146,3.65581 -47.91718,4.82548 -50.75948,4.00196 -3.91583,-1.13457 -5.18234,-4.34667 -6.40372,-16.24103 -1.12,-10.90712 -0.89118,-14.95509 0.97164,-17.18976 1.01197,-1.21397 8.37276,-2.45213 29.32229,-4.9323 34.8639,-4.12748 39.96463,-4.64169 40.20289,-4.05286 0.20999,0.51895 2.65533,23.13873 3.31327,30.64823 0.22821,2.6047 -0.13831,5.05447 -0.81447,5.44391 -0.67615,0.38944 -7.80074,1.43427 -15.83242,2.32185 z"
       id="path3002"
       inkscape:connector-curvature="0" />
    <path
       style="fill:#000000;fill-opacity:0.67058824;stroke:none"
       d="m 451.21029,492.61515 c -1.35795,-0.0233 -2.77029,-0.7944 -3.13852,-1.71357 -0.36863,-0.919 -1.48263,-8.94296 -2.47643,-17.83067 l -1.80692,-16.15948 2.84034,-0.79455 c 5.03395,-1.40822 13.57716,0.24198 17.70377,3.41963 6.92806,5.3349 9.11211,15.44241 4.95745,22.9425 -2.07552,3.74679 -3.16741,4.62424 -8.98664,7.22174 -3.64322,1.62622 -7.7351,2.9377 -9.09305,2.9144 z"
       id="path3004"
       inkscape:connector-curvature="0" />
    <path
       style="fill:#000000;fill-opacity:0.67058824;stroke:none"
       d="m 534.93801,510.93845 c -5.81772,-3.37755 -7.00729,-3.69818 -8.86628,-2.3897 -10.2862,7.24005 -19.06685,8.95445 -28.64985,5.59382 -8.63788,-3.02919 -12.6448,-7.14256 -15.87328,-16.29496 -2.4273,-6.88111 -2.51878,-8.03361 -1.13283,-14.27185 2.01552,-9.07198 5.89913,-14.04288 14.12148,-18.07503 4.70333,-2.30646 7.57408,-3.11452 11.32741,-3.18843 10.70111,-0.21075 21.52018,6.57894 25.32999,15.89629 l 1.91158,4.67508 8.58242,0.88607 c 13.63224,1.40743 13.27733,0.57593 7.06413,16.55043 -2.95715,7.60303 -5.7634,13.98019 -6.23609,14.17146 -0.47271,0.19128 -3.88311,-1.40766 -7.5787,-3.55317 z"
       id="path3006"
       inkscape:connector-curvature="0" />
    <path
       style="fill:#000000;fill-opacity:0.67058824;stroke:none"
       d="m 436.45057,680.67294 c -33.08146,3.65581 -47.91718,4.82548 -50.75948,4.00196 -3.91583,-1.13457 -5.18234,-4.34667 -6.40372,-16.24103 -1.12,-10.90712 -0.89118,-14.95509 0.97164,-17.18976 1.01197,-1.21397 8.37276,-2.45213 29.32229,-4.9323 34.8639,-4.12748 39.96463,-4.64169 40.20289,-4.05286 0.20999,0.51895 2.65533,23.13873 3.31327,30.64823 0.22821,2.6047 -0.13831,5.05447 -0.81447,5.44391 -0.67615,0.38944 -7.80074,1.43427 -15.83242,2.32185 z"
       id="path3002-6"
       inkscape:connector-curvature="0" />
    <path
       style="fill:#000000;fill-opacity:0.67058824;stroke:none"
       d="m 467.3681,676.96208 c -1.35795,-0.0233 -2.77029,-0.7944 -3.13852,-1.71357 -0.36863,-0.919 -1.48263,-8.94296 -2.47643,-17.83067 l -1.80692,-16.15948 2.84034,-0.79455 c 5.03395,-1.40822 13.57716,0.24198 17.70377,3.41963 6.92806,5.3349 9.11211,15.44241 4.95745,22.9425 -2.07552,3.74679 -3.16741,4.62424 -8.98664,7.22174 -3.64322,1.62622 -7.7351,2.9377 -9.09305,2.9144 z"
       id="path3004-5"
       inkscape:connector-curvature="0" />
    <path
       style="fill:#000000;fill-opacity:0.67058824;stroke:none"
       d="m 551.09582,695.28538 c -5.81772,-3.37755 -7.00729,-3.69818 -8.86628,-2.3897 -10.2862,7.24005 -19.06685,8.95445 -28.64985,5.59382 -8.63788,-3.02919 -12.6448,-7.14256 -15.87328,-16.29496 -2.4273,-6.88111 -2.51878,-8.03361 -1.13283,-14.27185 2.01552,-9.07198 5.89913,-14.04288 14.12148,-18.07503 4.70333,-2.30646 7.57408,-3.11452 11.32741,-3.18843 10.70111,-0.21075 21.52018,6.57894 25.32999,15.89629 l 1.91158,4.67508 8.58242,0.88607 c 13.63224,1.40743 13.27733,0.57593 7.06413,16.55043 -2.95715,7.60303 -5.7634,13.98019 -6.23609,14.17146 -0.47271,0.19128 -3.88311,-1.40766 -7.5787,-3.55317 z"
       id="path3006-8"
       inkscape:connector-curvature="0" />
    <path
       style="fill:#000000;fill-opacity:0.67058824;stroke:none"
       d="m 230.82886,668.73245 c -11.45002,-9.03383 -24.61661,-19.45559 -29.25911,-23.15949 l -8.44091,-6.73432 27.0856,-3.28785 27.08559,-3.28783 10.70221,16.00182 c 5.8862,8.80099 10.75309,16.42114 10.8153,16.93368 0.14047,1.15749 -15.5457,19.7619 -16.78943,19.91287 -0.2096,0.0252 -9.74925,-7.34505 -21.19925,-16.37888 z"
       id="path2998-6"
       inkscape:connector-curvature="0" />
    <path
       style="fill:#000000;fill-opacity:0.67058824;stroke:none"
       d="m 542.54252,749.87033 -34.87542,-14.69168 -34.87627,3.89534 c -65.94065,7.36493 -81.83732,8.63011 -88.91116,7.07624 -40.92122,-3.19401 -78.16689,-6.29666 -110.90954,-32.99582 -10.08764,-8.42519 -12.13977,-11.61149 -12.05953,-18.72468 0.0586,-5.20022 1.16853,-8.12479 4.57356,-12.05138 6.05057,-6.97737 16.95351,-8.16917 25.06565,-2.73993 27.37457,21.06069 31.76392,23.46569 76.44336,36.03058 l 53.59393,-20.23136 c 44.2627,-16.70888 49.58159,-5.00751 58.60335,-2.12184 8.99587,2.87739 76.82561,31.29779 79.31845,35.61293 11.57926,14.41309 -2.10083,26.8389 -15.96638,20.9416 z"
       id="path3000-1"
       inkscape:connector-curvature="0"
       sodipodi:nodetypes="ccscccsccsscc" />
  </g>
</svg>
